<svg xmlns="http://www.w3.org/2000/svg" viewBox="0 0 700.56 571.2"><defs><style>.cls-1{fill:#fff;}</style></defs><title>icono-triatlonRecurso 1</title><g id="Capa_2" data-name="Capa 2"><g id="Capa_1-2" data-name="Capa 1"><g id="natacion"><path class="cls-1" d="M221.56,475.18A36.21,36.21,0,1,1,185.36,439,36.21,36.21,0,0,1,221.56,475.18Z"/><path class="cls-1" d="M162.7,533.21c-29.08-61.26-50.23-105.76-52-109.53a14.54,14.54,0,0,0-2.87-4.22,14.11,14.11,0,0,0-4.52-3.08l-72.91-8.84a16.49,16.49,0,0,0-1.37,32.62l55.62,7.28,12.57,32.82L50.49,503.05a109.26,109.26,0,0,1,59.35,9Z"/><path class="cls-1" d="M.5,542.94a11.46,11.46,0,0,0,4.89,13.18,11.29,11.29,0,0,0,11.69-.43,67.38,67.38,0,0,1,31.24-22.1c26.36-8.77,49,2.59,53.34,4.89a171.31,171.31,0,0,0,73.1,23.8,72.42,72.42,0,0,0,30.18-5.95,73.24,73.24,0,0,0,30.82-25.5,10.61,10.61,0,0,0-15.52-13.18,51,51,0,0,1-13.17,13.82c-21.91,15.53-48.93,7.54-53.34,6.16L90,512.34a90.14,90.14,0,0,0-23.59-3,82.26,82.26,0,0,0-32.82,6.51A79.92,79.92,0,0,0,.5,542.94Z"/></g><g id="run"><path class="cls-1" d="M436.86,24.5A24.5,24.5,0,1,1,412.36,0,24.49,24.49,0,0,1,436.86,24.5Z"/><path class="cls-1" d="M393.35,46l-48-13.3a14.76,14.76,0,0,0-7.88,1,14.56,14.56,0,0,0-4.67,3.21L316.52,78.76a8.95,8.95,0,0,0,16.58,6.58q6.79-17,13.61-34L365,56.78l-26.26,56.34-29.64,49.6L259.3,180a12.74,12.74,0,0,0,8.37,23.18L325.19,183l24.5-36.1L379.48,174q-17.39,19.38-34.78,38.74A13,13,0,0,0,362.16,231l46.08-51.36a13.78,13.78,0,0,0-1.33-16.29l-29.05-25.82q11.44-22.68,22.9-45.37,3.47,8.76,6.91,17.5a10.84,10.84,0,0,0,11.24,3l37.8-31.76a9.95,9.95,0,0,0-10.37-14.69L418.91,87.58Q412.76,72.27,406.6,57a23.62,23.62,0,0,0-13.25-11Z"/></g><g id="ciclismo"><path class="cls-1" d="M657.46,390.5a24.9,24.9,0,1,1-24.9-24.9A24.89,24.89,0,0,1,657.46,390.5Z"/><path class="cls-1" d="M573.73,395.71a24.84,24.84,0,0,1,15.87-3.62,24.17,24.17,0,0,1,11.13,4.45c8.31,5.82,10.76,14.69,11.42,17.54l-3.06,27.56,35.63,7.24a12.64,12.64,0,0,1-6.13,23.94l-46.21-8.35A13.44,13.44,0,0,1,584,450l-15.86,10.3,26.72,16.15a15.22,15.22,0,0,1,.28,20L549.24,543.8a14.8,14.8,0,0,1-23.11-18.37L558.42,492l-42-29a27.19,27.19,0,0,1,2.78-33.68Z"/><path class="cls-1" d="M529.64,508.59l11.05-11.31c-2-3-13.47-20.08-35.3-23.62A49.91,49.91,0,0,0,476,477.91c-3,1.44-18,9.07-24.74,27-.65,1.73-9,25.35,5.92,45.78,11.14,15.2,27.69,18.36,32.44,19.07,23.06,3.42,39.56-10.69,41.95-12.8l-11.94-9.68c-2.43,2-11.42,8.93-24,8.29a35,35,0,0,1-31.07-23.91c-.25-.76-6-19.35,7-33.75a34.54,34.54,0,0,1,30.79-10.82c11.23,1.76,18.26,8.93,20.3,11.07A37.76,37.76,0,0,1,529.64,508.59Z"/><path class="cls-1" d="M647.62,490.91l.6-15.94c-2.75.22-23.62,2.23-36.18,20.75-10.89,16-7.83,33.14-6.75,37.94.86,3.85,4.3,18.13,17.76,28.22,13.74,10.31,32.07,11.84,47.18,5.7,19.06-7.75,26-24.89,27-27.43,1.08-2.78,7.36-19.75-.93-37.37-8-16.92-26.17-27.69-46.49-27.72l-2.22,15.85a32.62,32.62,0,0,1,23.29,6.23,32,32,0,0,1,11.36,17.29c.47,1.82,3.39,14-4.18,25.55a32.26,32.26,0,0,1-28.89,14.45c-13.68-.91-21.6-10.51-22.8-12-1.07-1.34-8.83-11.41-6.68-24.55S633,493.93,647.62,490.91Z"/></g><polygon class="cls-1" points="639.05 505.1 626.96 505.1 626.96 499.39 628.59 499.39 627.71 498.02 632.52 494.93 639.05 505.1"/><path class="cls-1" d="M612.93,505.1h-14v-5.71h14Zm-28.08,0h-14v-5.71h14Zm-28.07,0h-14v-5.71h14Zm-28.07,0h-14v-5.71h14Zm-28.08,0h-14v-5.71h14Zm-28.07,0h-14v-5.71h14Zm-28.07,0h-14v-5.71h14Zm-28.07,0h-14v-5.71h14Zm-28.08,0h-14v-5.71h14Zm-28.07,0h-14v-5.71h14Zm-28.07,0h-14v-5.71h14Zm-28.07,0h-14v-5.71h14Zm-28.08,0H262v-5.71h14Zm-28.07,0h-14v-5.71h14Zm-28.07,0h-14v-5.71h14Zm-28.07,0h-14v-5.71h14Zm-28.08,0h-14v-5.71h14Zm-28.07,0h-14v-5.71h14Z"/><polygon class="cls-1" points="107.62 505.1 95.53 505.1 102.06 494.93 106.87 498.02 105.99 499.39 107.62 499.39 107.62 505.1"/><path class="cls-1" d="M114.27,486.5l-4.81-3.09,7.41-11.53,4.81,3.09Zm14.81-23.05-4.81-3.09,7.4-11.53,4.81,3.09Zm14.81-23.05-4.81-3.09,7.4-11.52,4.81,3.09Zm14.8-23-4.81-3.09,7.41-11.52,4.81,3.09ZM173.5,394.3l-4.81-3.09,7.4-11.52,4.81,3.09Zm14.81-23-4.81-3.09,7.4-11.53,4.81,3.09Zm14.8-23.05-4.81-3.09,7.41-11.53,4.81,3.09Zm14.81-23-4.81-3.09,7.4-11.52,4.81,3.09Zm14.81-23.05L227.92,299l7.4-11.52,4.81,3.09Zm14.8-23.05L242.72,276l7.41-11.52,4.81,3.09ZM262.34,256l-4.81-3.08,7.4-11.53,4.81,3.09Zm14.81-23-4.81-3.09,7.4-11.53,4.81,3.09ZM292,209.92l-4.81-3.09,7.41-11.52,4.81,3.08Zm14.81-23L302,183.78l7.4-11.52,4.81,3.09Zm14.81-23.05-4.81-3.09,7.4-11.52L329,152.3Zm14.8-23-4.81-3.09L339,126.16l4.81,3.09Zm14.81-23.05-4.81-3.08,7.4-11.53,4.81,3.09Z"/><polygon class="cls-1" points="365.99 94.68 361.18 91.59 367.29 82.08 373.4 91.59 368.59 94.68 367.29 92.65 365.99 94.68"/><path class="cls-1" d="M620.3,486.5,612.9,475l4.81-3.09,7.4,11.53Zm-14.8-23.05-7.41-11.53,4.81-3.09,7.41,11.53ZM590.69,440.4l-7.4-11.52,4.81-3.09,7.4,11.52Zm-14.81-23-7.4-11.52,4.81-3.09,7.4,11.52Zm-14.8-23.05-7.41-11.52,4.81-3.09,7.41,11.52Zm-14.81-23-7.4-11.53,4.81-3.09,7.4,11.53Zm-14.8-23.05-7.41-11.53,4.81-3.09,7.4,11.53Zm-14.81-23-7.4-11.53,4.8-3.09,7.41,11.53Zm-14.81-23.05-7.4-11.52,4.81-3.09,7.4,11.52Zm-14.8-23.05-7.41-11.52,4.81-3.09,7.4,11.52ZM472.24,256l-7.41-11.52,4.81-3.09,7.41,11.53Zm-14.81-23L450,221.44l4.81-3.09,7.4,11.53Zm-14.81-23.05-7.4-11.53L440,195.3l7.4,11.53Zm-14.8-23-7.41-11.52,4.81-3.09,7.41,11.52ZM413,163.82l-7.4-11.52,4.81-3.09,7.4,11.52Zm-14.81-23-7.4-11.52,4.81-3.09,7.4,11.52Zm-14.8-23.05L376,106.2l4.81-3.09,7.41,11.53Z"/></g></g></svg>