<svg width="150" height="147" viewBox="0 0 150 147" fill="none" xmlns="http://www.w3.org/2000/svg">
<g clip-path="url(#clip0_1390_1358)">
<path d="M150 114.263C149.153 115.376 148.421 116.613 147.445 117.582C138.439 126.69 129.41 135.773 120.357 144.832C117.48 147.717 115.192 147.711 112.321 144.832C109.356 141.856 106.389 138.877 103.418 135.897C100.887 133.347 100.714 131.491 102.724 128.501C100.884 126.151 98.5107 124.802 95.5049 124.567C92.7974 124.388 90.2408 123.253 88.2891 121.363C85.7842 118.966 83.335 116.504 80.8916 114.04C79.749 112.886 79.6992 111.637 80.666 110.683C81.5859 109.772 82.8955 109.857 84.0322 110.976C86.2646 113.168 88.4814 115.375 90.6826 117.6C92.0971 119.114 94.0228 120.046 96.085 120.214C100.034 120.529 103.242 122.32 105.7 125.184C113.206 117.682 120.662 110.236 128.215 102.69C127.96 102.396 127.567 101.991 127.189 101.559C125.139 99.1887 123.967 96.4481 123.899 93.2875C123.855 91.0845 123.899 88.8815 123.87 86.6785C123.888 85.5741 123.683 84.4774 123.269 83.454C122.855 82.4305 122.239 81.5012 121.459 80.7215C118.151 77.3905 114.861 74.0419 111.516 70.7521C108.987 68.2642 105.551 67.7824 102.606 69.5772C104.106 71.0458 105.568 72.4705 107.024 73.898C107.408 74.274 107.798 74.647 108.149 75.0524C109.063 76.1069 109.069 77.3377 108.188 78.2071C107.306 79.0766 106.014 79.0589 105.038 78.1131C103.248 76.3801 101.522 74.5883 99.7646 72.8259C99.4014 72.4616 99.0117 72.118 98.3818 71.5276V74.2593C98.3818 77.931 98.1797 81.6174 98.4258 85.2715C98.8359 91.3195 94.2656 95.7872 87.7676 93.8662C87.7676 95.5698 87.8203 97.2089 87.7676 98.842C87.583 103.689 83.9385 106.899 79.2715 106.362C78.5602 106.241 77.856 106.081 77.1621 105.883C77.0652 106.218 76.9222 106.539 76.7373 106.835C75.6826 108.139 74.8184 109.819 73.4502 110.597C71.6602 111.611 70.2275 112.909 68.8271 114.313C66.7178 116.425 64.6084 118.531 62.5195 120.658C60.2402 122.975 57.5391 124.368 54.2666 124.617C51.3662 124.841 49.1045 126.242 47.3203 128.489C49.3301 131.72 49.1426 133.362 46.4238 136.102C43.3945 139.157 40.3584 142.204 37.3154 145.243C34.9717 147.564 32.4141 147.593 30.1143 145.288C23.9053 139.096 17.7236 132.89 11.5693 126.671C10.2832 125.375 10.1514 124.074 11.1621 123.099C12.1729 122.124 13.3975 122.291 14.7217 123.619C20.626 129.536 26.5234 135.461 32.4141 141.393C32.7419 141.784 33.0359 142.203 33.293 142.644L43.96 131.87L14.9561 102.94L4.40918 113.497C5.35254 114.378 6.50977 115.409 7.6084 116.498C8.80957 117.691 8.91211 119.028 7.9541 119.97C6.99609 120.913 5.68945 120.852 4.50879 119.565C2.95605 117.853 1.5 116.026 0 114.263V111.913C0.893555 110.777 1.70215 109.563 2.69824 108.521C5.4082 105.704 8.2002 102.96 10.96 100.193C13.5527 97.5907 15.4717 97.4233 18.5361 99.6058C20.4756 97.9021 21.627 95.7872 21.7002 93.1612C21.7764 90.4735 21.7002 87.7741 21.8643 85.0923C22.0547 82.2107 23.3291 79.7345 25.3447 77.6813C28.708 74.2701 32.0879 70.8755 35.4844 67.4975C37.5352 65.4414 40.0635 64.4045 43.1016 64.0402C41.5928 61.1029 41.877 58.0715 41.8711 55.0666C41.8711 51.6417 41.8975 48.2138 41.8711 44.7859C41.8359 41.1054 43.1572 38.03 45.7295 35.4304C47.1445 34.0087 48.5771 32.6076 49.9658 31.1624C50.8794 30.2485 51.5769 29.1407 52.0069 27.9206C52.4368 26.7005 52.5883 25.3993 52.4502 24.1128C52.084 24.0246 51.7207 23.9336 51.3574 23.8543C49.0957 23.3608 47.5664 21.6424 47.5488 19.2984C47.4932 14.4048 47.4814 9.50823 47.5488 4.61165C47.5869 1.94453 49.5996 -0.00293215 52.2568 -0.00586951C65.8564 -0.0137025 79.4688 -0.00684862 93.0938 0.014692C95.915 0.014692 97.8281 2.00622 97.8457 4.87602C97.8691 9.18512 97.8457 13.4913 97.8457 17.8004C97.8457 21.9127 97.0576 22.9848 93.1582 24.1421C92.8125 26.7858 93.2373 29.2972 95.0244 31.3886C97.4355 34.2114 98.4082 37.4542 98.3789 41.1318C98.3232 48.7161 98.3438 56.3062 98.3789 63.8904C98.3789 64.66 98.8037 65.4237 99.0732 66.3402C102.146 64.472 105.032 63.679 108.234 64.284C110.607 64.6982 112.795 65.8322 114.504 67.5328C117.867 70.8725 121.201 74.2446 124.547 77.6079C126.771 79.8403 127.922 82.5838 128.227 85.6739C130.433 85.7209 131.473 86.4611 131.449 87.8945C131.426 89.3279 130.292 90.1387 128.35 90.0212C127.922 93.6723 128.388 97.0121 131.429 99.5969C131.979 99.2083 132.552 98.8541 133.146 98.5366C134.936 97.7023 136.852 98.0725 138.384 99.5911C141.786 102.967 145.163 106.365 148.515 109.784C149.101 110.392 149.49 111.208 149.979 111.928L150 114.263ZM51.5156 65.6646C51.5449 65.1329 51.5977 64.6248 51.6006 64.1166C51.6152 62.0605 51.5596 60.0043 51.6357 57.9482C51.6855 56.5705 52.6523 55.7393 53.9092 55.7833C55.1104 55.8274 55.9014 56.6645 55.9863 57.9805C56.0156 58.4211 55.9863 58.8617 55.9863 59.3023C55.9863 72.1268 55.9863 84.9532 55.9863 97.7817C55.9863 100.569 57.0586 102.009 59.1182 102.003C61.1777 101.997 62.1855 100.616 62.1855 97.7523C62.1855 86.3495 62.1855 74.9447 62.1855 63.538C62.1609 62.9484 62.1962 62.3579 62.291 61.7755C62.5312 60.6006 63.3486 59.9867 64.4971 60.0454C65.0204 60.0358 65.5266 60.2322 65.9073 60.5924C66.2879 60.9526 66.5126 61.448 66.5332 61.9723C66.5747 62.5088 66.5884 63.0471 66.5742 63.585C66.5742 76.901 66.5742 90.217 66.5742 103.533C66.5742 105.924 67.7812 107.296 69.75 107.261C71.6543 107.228 72.7734 105.895 72.7881 103.551C72.7881 101.641 72.7266 99.7321 72.7236 97.8257C72.7236 86.4209 72.7236 75.0162 72.7236 63.6114C72.709 63.1706 72.7178 62.7294 72.75 62.2896C72.8994 60.9208 73.7988 60.0543 75.0176 60.066C76.2363 60.0778 77.0684 60.9648 77.1768 62.3806C77.2119 62.8653 77.1914 63.3588 77.1914 63.8493C77.1914 75.1581 77.1914 86.465 77.1914 97.7699C77.1914 98.2605 77.168 98.7539 77.2119 99.2386C77.2562 99.9532 77.5594 100.627 78.0644 101.133C78.5693 101.64 79.2413 101.944 79.9541 101.988C81.5449 102.105 82.8838 101.183 83.1943 99.6381C83.3133 98.9595 83.3623 98.2705 83.3408 97.5819C83.3408 86.277 83.3408 74.9701 83.3408 63.6613C83.3203 63.073 83.3428 62.4839 83.4082 61.8989C83.5723 60.7768 84.2871 60.1571 85.3945 60.1013C86.5664 60.0425 87.3691 60.6182 87.6182 61.7902C87.7151 62.3724 87.7514 62.963 87.7266 63.5526C87.7266 70.8941 87.7266 78.2375 87.7266 85.5828C87.7107 86.1713 87.7361 86.7603 87.8027 87.3452C87.8895 88.0309 88.2147 88.664 88.7211 89.133C89.2275 89.6021 89.8826 89.877 90.5713 89.9095C92.0361 90.0035 93.3047 89.2046 93.7061 87.8005C93.8719 87.1383 93.9458 86.4563 93.9258 85.7738C93.9258 70.7932 93.9258 55.8127 93.9492 40.8322C93.9492 38.3208 93.2637 36.1324 91.6406 34.2143C89.6912 31.9215 88.6286 29.0025 88.6465 25.9897C88.6465 25.37 88.6465 24.7502 88.6465 23.9865H86.8506C82.1143 23.9865 77.3779 23.9865 72.6416 23.9865C72.0582 24.0106 71.4744 23.9522 70.9072 23.8132C69.8408 23.49 69.167 22.6147 69.4717 21.5954C69.6973 20.8464 70.4883 20.1885 71.1768 19.695C71.54 19.4336 72.2168 19.5922 72.7529 19.5892C79.0518 19.5892 85.3496 19.5892 91.6465 19.5892C92.209 19.5892 92.7715 19.5246 93.3135 19.4923V4.51178H51.9756V19.5011C52.5615 19.5305 53.0684 19.5804 53.5898 19.5834C55.9805 19.5834 58.374 19.5834 60.7646 19.5834C62.4902 19.5834 63.501 20.4176 63.5127 21.7482C63.5244 23.0788 62.4873 23.9453 60.7998 23.9776C59.5459 24.0041 58.2891 23.9776 56.9912 23.9776C56.9383 24.269 56.9031 24.5632 56.8857 24.8589C56.8857 28.9183 55.2598 32.2346 52.3682 35.0015C51.0967 36.2176 49.875 37.4865 48.6416 38.7437C47.2969 40.1125 46.3447 41.7428 46.3154 43.6697C46.2393 48.9569 46.21 54.2442 46.3154 59.5314C46.3799 62.4276 48.7881 65.1623 51.5156 65.6646ZM65.7598 111.114L61.9688 105.903C56.168 107.716 51.6094 104.367 51.6064 98.0401C51.6064 89.8155 51.6064 81.591 51.6064 73.3664C51.6064 72.8553 51.5654 72.3412 51.5244 71.4453L46.0811 76.9999C45.7031 77.3817 45.3369 77.7783 44.9326 78.1307C43.9102 79.0119 42.6152 79.012 41.7773 78.1542C40.9395 77.2965 40.8984 76.007 41.8828 75.0083C43.6816 73.1695 45.5361 71.3924 47.4141 69.5449C44.376 67.7824 41.0156 68.2524 38.4932 70.7374C35.1562 74.0214 31.8574 77.3817 28.5469 80.7068C27.7659 81.4842 27.149 82.4111 26.7327 83.4325C26.3165 84.4539 26.1095 85.5488 26.124 86.652C26.1035 88.8051 26.124 90.9582 26.1006 93.1142C26.0478 96.4363 24.835 99.3003 22.6201 101.753C22.3008 102.108 21.9932 102.473 21.7705 102.731L44.2734 125.219C46.9658 121.962 50.6162 120.464 54.8965 120.009C56.2383 119.868 57.6797 118.998 58.7227 118.064C61.2305 115.826 63.5303 113.347 65.7598 111.114ZM135.146 102.807L105.99 131.887L116.244 142.121L145.383 113.065L135.146 102.807Z" fill="white"/>
<path d="M122.441 43.8107C122.447 44.0988 122.397 44.3855 122.294 44.6543C122.19 44.9231 122.034 45.1687 121.836 45.3773C121.637 45.5858 121.4 45.7531 121.137 45.8696C120.874 45.9861 120.591 46.0495 120.303 46.0563C120.016 46.063 119.73 46.013 119.462 45.9089C119.194 45.8049 118.949 45.6489 118.741 45.45C118.533 45.251 118.366 45.0129 118.25 44.7492C118.134 44.4856 118.07 44.2016 118.064 43.9135C118.045 43.3462 118.249 42.7942 118.633 42.3769C119.017 41.9597 119.549 41.7107 120.115 41.684C120.408 41.6662 120.701 41.7075 120.978 41.8055C121.255 41.9034 121.509 42.0561 121.726 42.2544C121.943 42.4527 122.118 42.6926 122.241 42.9599C122.363 43.2272 122.431 43.5165 122.441 43.8107Z" fill="white"/>
<path d="M22.8916 50.1319C22.9019 50.4257 22.8516 50.7186 22.7438 50.992C22.636 51.2655 22.473 51.5137 22.2651 51.721C22.0572 51.9284 21.8088 52.0905 21.5354 52.1971C21.2621 52.3038 20.9698 52.3527 20.6768 52.3407C20.1105 52.3318 19.5697 52.103 19.1682 51.7026C18.7666 51.3022 18.5355 50.7612 18.5234 50.1935C18.5398 49.6015 18.7825 49.0385 19.2013 48.6208C19.62 48.2031 20.1829 47.9627 20.7734 47.9494C21.3396 47.9676 21.8766 48.2052 22.2716 48.6122C22.6666 49.0193 22.8889 49.564 22.8916 50.1319Z" fill="white"/>
<path d="M37.7132 27.9049C38.0035 27.9062 38.2905 27.9663 38.5569 28.0817C38.8234 28.1972 39.0637 28.3655 39.2636 28.5765C39.4634 28.7876 39.6185 29.037 39.7197 29.3098C39.8208 29.5826 39.8658 29.8731 39.8519 30.1637C39.8414 30.748 39.5999 31.3042 39.1804 31.7099C38.7609 32.1156 38.1979 32.3376 37.6151 32.3271C37.0324 32.3166 36.4776 32.0744 36.073 31.6538C35.6683 31.2332 35.4469 30.6687 35.4574 30.0844C35.4689 29.4957 35.7129 28.9356 36.1358 28.527C36.5587 28.1184 37.126 27.8947 37.7132 27.9049Z" fill="white"/>
<path d="M19.5084 58.2419C19.5158 58.5353 19.4649 58.8273 19.3586 59.1007C19.2524 59.3742 19.0929 59.6237 18.8895 59.8348C18.6861 60.0459 18.4428 60.2142 18.1738 60.3301C17.9049 60.4459 17.6156 60.5069 17.3229 60.5096C16.7562 60.5158 16.2101 60.2963 15.8047 59.8992C15.3993 59.5021 15.1677 58.9599 15.1608 58.3917C15.1465 58.0978 15.1917 57.8041 15.2936 57.5281C15.3955 57.2522 15.552 56.9998 15.7537 56.786C15.9554 56.5723 16.1981 56.4016 16.4673 56.2843C16.7364 56.1671 17.0265 56.1055 17.3199 56.1035C17.8882 56.1121 18.4316 56.3384 18.8386 56.7361C19.2456 57.1338 19.4853 57.6726 19.5084 58.2419Z" fill="white"/>
<path d="M124.898 54.0474C124.605 54.0532 124.314 54.0005 124.042 53.8923C123.769 53.7841 123.521 53.6226 123.312 53.4172C123.103 53.2118 122.937 52.9667 122.823 52.6961C122.709 52.4255 122.651 52.135 122.65 51.8414C122.646 51.2726 122.863 50.7245 123.256 50.3144C123.649 49.9043 124.187 49.6648 124.754 49.6472C125.346 49.6417 125.916 49.8712 126.34 50.2856C126.763 50.7 127.006 51.2656 127.016 51.859C127.015 52.4282 126.794 52.9748 126.399 53.3832C126.003 53.7916 125.465 54.0298 124.898 54.0474Z" fill="white"/>
<path d="M27.5401 42.5917C27.5333 43.1847 27.2952 43.7515 26.877 44.1709C26.4587 44.5903 25.8933 44.8289 25.3018 44.8358C24.7359 44.815 24.1992 44.5786 23.8013 44.1746C23.4033 43.7707 23.174 43.2298 23.1602 42.6622C23.1578 42.3688 23.2141 42.0779 23.3258 41.8067C23.4375 41.5356 23.6022 41.2896 23.8104 41.0834C24.0185 40.8771 24.2658 40.7149 24.5376 40.6061C24.8093 40.4974 25.1001 40.4444 25.3927 40.4503C25.9588 40.4549 26.5006 40.6816 26.902 41.0819C27.3034 41.4821 27.5325 42.0241 27.5401 42.5917Z" fill="white"/>
<path d="M109.844 30.5309C109.839 30.9615 109.708 31.3812 109.467 31.7378C109.226 32.0944 108.887 32.3723 108.49 32.5368C108.093 32.7013 107.656 32.7453 107.235 32.6632C106.813 32.5811 106.425 32.3766 106.118 32.0751C105.811 31.7736 105.6 31.3884 105.51 30.9674C105.42 30.5464 105.455 30.1081 105.611 29.7069C105.767 29.3058 106.038 28.9596 106.389 28.7113C106.74 28.463 107.156 28.3235 107.585 28.3102C108.176 28.3124 108.742 28.5457 109.164 28.9604C109.586 29.3752 109.83 29.9386 109.844 30.5309Z" fill="white"/>
<path d="M129.889 67.286C130.475 67.2883 131.037 67.5224 131.453 67.9376C131.869 68.3528 132.105 68.9155 132.109 69.5037C132.104 69.9345 131.972 70.3541 131.73 70.7101C131.489 71.0662 131.148 71.3429 130.75 71.5057C130.352 71.6685 129.915 71.7102 129.494 71.6255C129.073 71.5408 128.686 71.3335 128.381 71.0296C128.077 70.7256 127.869 70.3384 127.783 69.9164C127.697 69.4944 127.736 69.0563 127.897 68.6569C128.058 68.2574 128.333 67.9144 128.687 67.6706C129.041 67.4267 129.459 67.293 129.889 67.286Z" fill="white"/>
<path d="M17.0509 84.5459C17.0568 84.8269 17.0065 85.1063 16.903 85.3675C16.7995 85.6287 16.6449 85.8665 16.4484 86.0669C16.2518 86.2673 16.0172 86.4262 15.7584 86.5342C15.4996 86.6423 15.2219 86.6973 14.9415 86.6961C14.6489 86.7052 14.3573 86.6549 14.0846 86.5481C13.8118 86.4414 13.5634 86.2804 13.3543 86.0748C13.1452 85.8693 12.9797 85.6235 12.8678 85.3521C12.7559 85.0808 12.7 84.7896 12.7033 84.496C12.7249 83.9288 12.9566 83.39 13.3532 82.9848C13.7497 82.5797 14.2826 82.3372 14.8478 82.3047C15.1402 82.3035 15.4299 82.3609 15.6998 82.4735C15.9698 82.5861 16.2146 82.7517 16.4198 82.9604C16.6251 83.1692 16.7866 83.417 16.895 83.6893C17.0034 83.9616 17.0564 84.2528 17.0509 84.5459Z" fill="white"/>
<path d="M16.8189 95.3877C16.2552 95.398 15.7093 95.19 15.2946 94.807C14.8799 94.4241 14.6284 93.8957 14.5923 93.3316C14.5606 93.0394 14.5907 92.7438 14.6804 92.464C14.7702 92.1842 14.9177 91.9265 15.1134 91.7076C15.309 91.4888 15.5484 91.3136 15.816 91.1936C16.0836 91.0736 16.3734 91.0114 16.6665 91.0111C16.959 90.9984 17.2511 91.0451 17.5252 91.1484C17.7992 91.2517 18.0497 91.4094 18.2614 91.6122C18.4732 91.8149 18.642 92.0584 18.7575 92.3281C18.8731 92.5979 18.9332 92.8882 18.9341 93.1818C18.9179 93.7473 18.6923 94.2864 18.3013 94.6942C17.9103 95.1021 17.3818 95.3493 16.8189 95.3877Z" fill="white"/>
<path d="M130.268 60.5389C130.257 60.8327 130.187 61.1211 130.062 61.387C129.937 61.6529 129.759 61.8909 129.541 62.0866C129.322 62.2824 129.066 62.4319 128.788 62.5263C128.511 62.6208 128.217 62.6581 127.925 62.6362C127.644 62.6251 127.368 62.5576 127.114 62.4379C126.859 62.3182 126.632 62.1486 126.444 61.9391C126.256 61.7297 126.112 61.4846 126.02 61.2184C125.928 60.9522 125.89 60.6702 125.909 60.3891C125.921 59.822 126.153 59.2819 126.555 58.8833C126.958 58.4847 127.499 58.2589 128.065 58.2537C128.658 58.2698 129.22 58.5181 129.632 58.9454C130.044 59.3726 130.272 59.9447 130.268 60.5389Z" fill="white"/>
<path d="M116.637 36.717C116.642 36.9983 116.591 37.2779 116.487 37.5391C116.382 37.8003 116.226 38.0377 116.029 38.2372C115.831 38.4367 115.595 38.5943 115.335 38.7005C115.075 38.8067 114.796 38.8594 114.516 38.8554C114.223 38.8596 113.933 38.8061 113.662 38.6978C113.39 38.5895 113.142 38.4286 112.933 38.2242C112.723 38.0199 112.556 37.7762 112.44 37.5069C112.325 37.2377 112.264 36.9483 112.26 36.6553C112.285 36.0877 112.52 35.5499 112.919 35.1468C113.318 34.7437 113.853 34.5045 114.419 34.4758C114.712 34.4742 115.003 34.5312 115.274 34.6435C115.545 34.7558 115.79 34.9211 115.997 35.1298C116.203 35.3384 116.366 35.5863 116.476 35.8588C116.586 36.1313 116.641 36.4231 116.637 36.717Z" fill="white"/>
<path d="M15.2119 64.6777C15.5045 64.6863 15.7924 64.7534 16.0587 64.8753C16.325 64.9971 16.5643 65.1711 16.7625 65.3871C16.9607 65.6031 17.1138 65.8566 17.2128 66.1328C17.3117 66.409 17.3546 66.7022 17.3389 66.9953C17.3351 67.2763 17.2754 67.5537 17.1633 67.8113C17.0511 68.0688 16.8887 68.3013 16.6856 68.4951C16.4826 68.6888 16.2429 68.8399 15.9808 68.9395C15.7187 69.0391 15.4393 69.0851 15.1592 69.0749C14.5915 69.075 14.0465 68.8515 13.6416 68.4527C13.2366 68.0538 13.0041 67.5114 12.9941 66.9424C12.9963 66.3495 13.2294 65.7809 13.6437 65.3578C14.058 64.9348 14.6207 64.6907 15.2119 64.6777Z" fill="white"/>
<path d="M14.3963 77.8781C14.1158 77.8876 13.8363 77.8404 13.5744 77.7395C13.3125 77.6386 13.0735 77.4859 12.8715 77.2905C12.6696 77.0952 12.5088 76.8612 12.3988 76.6023C12.2889 76.3435 12.2319 76.0651 12.2312 75.7838C12.2167 75.4909 12.2609 75.1981 12.3612 74.9227C12.4616 74.6473 12.6161 74.3949 12.8155 74.1804C13.0149 73.9659 13.2553 73.7938 13.5223 73.6741C13.7893 73.5545 14.0775 73.4898 14.3699 73.4839C14.9359 73.4949 15.4768 73.7203 15.8839 74.1148C16.2909 74.5093 16.534 75.0437 16.5642 75.6105C16.5786 75.9042 16.533 76.1977 16.4304 76.4731C16.3277 76.7485 16.1701 77 15.9672 77.2123C15.7643 77.4246 15.5203 77.5931 15.2502 77.7076C14.9801 77.8221 14.6895 77.8801 14.3963 77.8781Z" fill="white"/>
<path d="M102.121 25.4463C102.135 26.0131 101.926 26.5627 101.54 26.9765C101.154 27.3904 100.62 27.6352 100.055 27.6582C99.7646 27.682 99.4722 27.6455 99.1963 27.5508C98.9205 27.4561 98.667 27.3053 98.452 27.1079C98.2369 26.9104 98.0648 26.6706 97.9465 26.4034C97.8281 26.1362 97.7661 25.8474 97.7642 25.555C97.7513 24.9892 97.9552 24.44 98.334 24.0203C98.7128 23.6007 99.2376 23.3426 99.8004 23.2991C100.389 23.2882 100.958 23.5054 101.391 23.9055C101.823 24.3056 102.085 24.8576 102.121 25.4463Z" fill="white"/>
<path d="M33.1936 35.8358C33.2018 36.1287 33.1516 36.4204 33.046 36.6937C32.9403 36.967 32.7813 37.2164 32.5783 37.4273C32.3753 37.6382 32.1324 37.8063 31.8638 37.9219C31.5952 38.0375 31.3062 38.0982 31.0139 38.1005C30.448 38.0855 29.9088 37.8564 29.5044 37.4592C29.1001 37.062 28.8607 36.5261 28.8342 35.9591C28.8299 35.6661 28.8841 35.3753 28.9936 35.1036C29.1031 34.8319 29.2656 34.5849 29.4717 34.3772C29.6778 34.1695 29.9233 34.0052 30.1937 33.894C30.4641 33.7828 30.7539 33.7269 31.0461 33.7297C31.3265 33.721 31.6058 33.7691 31.8672 33.8713C32.1286 33.9734 32.3667 34.1275 32.5672 34.3242C32.7678 34.5208 32.9266 34.7561 33.0343 35.0159C33.1419 35.2756 33.1961 35.5545 33.1936 35.8358Z" fill="white"/>
<path d="M130.268 80.886C129.703 80.8726 129.164 80.6413 128.765 80.2403C128.366 79.8393 128.136 79.2995 128.123 78.7329C128.124 78.4391 128.182 78.1484 128.295 77.8773C128.408 77.6062 128.573 77.36 128.781 77.153C128.989 76.9459 129.236 76.782 129.507 76.6705C129.778 76.5591 130.068 76.5023 130.361 76.5035C130.654 76.5082 130.943 76.573 131.21 76.6938C131.477 76.8146 131.717 76.989 131.914 77.206C132.111 77.4231 132.262 77.6784 132.357 77.9561C132.453 78.2339 132.49 78.5282 132.468 78.821C132.461 79.1023 132.398 79.3793 132.284 79.636C132.169 79.8927 132.004 80.1239 131.8 80.3162C131.595 80.5084 131.354 80.6578 131.091 80.7556C130.828 80.8535 130.548 80.8978 130.268 80.886Z" fill="white"/>
<path d="M47.2842 25.2613C47.2936 25.5537 47.2446 25.8451 47.1402 26.1183C47.0357 26.3915 46.8779 26.641 46.6759 26.8523C46.474 27.0635 46.232 27.2322 45.9642 27.3484C45.6963 27.4645 45.4081 27.5259 45.1162 27.5289C44.5521 27.5197 44.0128 27.2946 43.6087 26.8999C43.2046 26.5051 42.9662 25.9704 42.9424 25.4052C42.927 25.112 42.9722 24.8188 43.0751 24.544C43.1781 24.2692 43.3366 24.0187 43.5408 23.8082C43.7449 23.5978 43.9902 23.4319 44.2613 23.321C44.5325 23.2102 44.8235 23.1567 45.1162 23.164C45.3971 23.1545 45.6769 23.2018 45.9392 23.3029C46.2015 23.4039 46.4409 23.5568 46.6431 23.7525C46.8453 23.9481 47.0062 24.1824 47.1164 24.4416C47.2265 24.7008 47.2836 24.9795 47.2842 25.2613Z" fill="white"/>
<path d="M36.6217 132.498C36.5705 133.077 36.3075 133.616 35.8835 134.011C35.4595 134.407 34.9045 134.631 34.3254 134.64C33.7464 134.65 33.1843 134.444 32.7476 134.062C32.3109 133.681 32.0306 133.151 31.9606 132.575C31.9208 132.248 31.9501 131.916 32.0465 131.601C32.1428 131.286 32.3041 130.995 32.5199 130.747C32.7356 130.499 33.001 130.299 33.2989 130.16C33.5967 130.021 33.9204 129.946 34.2488 129.941C34.5772 129.936 34.9031 130 35.2054 130.129C35.5076 130.258 35.7794 130.449 36.0031 130.69C36.2268 130.931 36.3975 131.217 36.5041 131.528C36.6107 131.84 36.6507 132.17 36.6217 132.498Z" fill="white"/>
<path d="M69.9076 136.916C69.6152 136.916 69.3259 136.857 69.0565 136.743C68.787 136.63 68.5428 136.464 68.338 136.255C68.1332 136.045 67.972 135.798 67.8637 135.525C67.7555 135.253 67.7023 134.962 67.7074 134.669C67.7417 134.103 67.9865 133.571 68.3934 133.178C68.8003 132.785 69.3396 132.559 69.9046 132.545C70.197 132.549 70.4856 132.612 70.7535 132.729C71.0214 132.847 71.2633 133.017 71.4649 133.229C71.6665 133.441 71.8239 133.692 71.9277 133.966C72.0316 134.24 72.0798 134.532 72.0697 134.825C72.0574 135.389 71.8232 135.925 71.4182 136.317C71.0132 136.709 70.4702 136.924 69.9076 136.916Z" fill="white"/>
<path d="M78.6349 136.634C78.0682 136.636 77.5233 136.415 77.1178 136.019C76.7122 135.622 76.4784 135.081 76.4669 134.513C76.4614 133.92 76.6909 133.349 77.105 132.925C77.5191 132.501 78.084 132.259 78.6759 132.252C79.2419 132.273 79.7794 132.506 80.1824 132.905C80.5853 133.304 80.8245 133.84 80.8526 134.408C80.8582 134.701 80.8046 134.993 80.6952 135.265C80.5857 135.538 80.4226 135.785 80.2156 135.993C80.0086 136.201 79.7619 136.365 79.4903 136.475C79.2187 136.585 78.9278 136.639 78.6349 136.634Z" fill="white"/>
<path d="M93.3792 129.99C93.3747 129.697 93.4294 129.406 93.5401 129.134C93.6508 128.863 93.815 128.617 94.023 128.411C94.231 128.204 94.4785 128.043 94.7505 127.935C95.0225 127.827 95.3134 127.776 95.6057 127.784C96.1716 127.804 96.7086 128.04 97.1072 128.443C97.5057 128.846 97.7357 129.387 97.7502 129.955C97.738 130.547 97.4945 131.11 97.0721 131.525C96.6498 131.939 96.0822 132.17 95.4915 132.169C94.9259 132.152 94.3891 131.916 93.9948 131.509C93.6005 131.102 93.3797 130.557 93.3792 129.99Z" fill="white"/>
<path d="M89.4355 132.901C89.4307 133.194 89.3675 133.484 89.2498 133.752C89.1321 134.021 88.9622 134.263 88.75 134.465C88.5378 134.667 88.2876 134.825 88.014 134.929C87.7403 135.033 87.4487 135.082 87.1563 135.071C86.5924 135.026 86.0658 134.771 85.6799 134.356C85.294 133.942 85.0765 133.397 85.0703 132.83C85.0765 132.536 85.1418 132.247 85.2623 131.979C85.3828 131.711 85.5561 131.47 85.7717 131.271C85.9873 131.072 86.2407 130.918 86.5169 130.82C86.7931 130.721 87.0863 130.68 87.3789 130.698C87.6589 130.705 87.9346 130.768 88.1901 130.883C88.4456 130.998 88.6758 131.163 88.8671 131.368C89.0585 131.573 89.2073 131.814 89.3049 132.077C89.4025 132.34 89.4469 132.62 89.4355 132.901Z" fill="white"/>
<path d="M54.9522 131.356C54.9515 131.948 54.7184 132.515 54.3034 132.937C53.8884 133.358 53.3248 133.598 52.7344 133.606C52.1705 133.583 51.6365 133.346 51.2404 132.943C50.8444 132.54 50.616 132.001 50.6016 131.435C50.5894 131.154 50.633 130.874 50.7299 130.61C50.8267 130.347 50.9748 130.105 51.1656 129.899C51.3564 129.693 51.5861 129.527 51.8413 129.411C52.0966 129.295 52.3723 129.231 52.6524 129.223C52.9442 129.207 53.2362 129.25 53.5112 129.349C53.7862 129.448 54.0385 129.602 54.253 129.801C54.4676 130 54.64 130.24 54.7601 130.507C54.8803 130.774 54.9456 131.063 54.9522 131.356Z" fill="white"/>
<path d="M61.2842 135.932C60.6931 135.936 60.1237 135.71 59.6965 135.3C59.2694 134.89 59.0182 134.33 58.9961 133.738C58.9952 133.169 59.2164 132.623 59.6123 132.216C60.0083 131.809 60.5474 131.574 61.1143 131.561C61.3945 131.542 61.6758 131.579 61.9416 131.67C62.2075 131.761 62.4524 131.905 62.662 132.092C62.8717 132.28 63.0418 132.507 63.1624 132.762C63.283 133.016 63.3516 133.292 63.3643 133.573C63.3865 133.866 63.35 134.16 63.2568 134.439C63.1636 134.717 63.0156 134.974 62.8216 135.194C62.6277 135.414 62.3917 135.592 62.1276 135.719C61.8635 135.846 61.5767 135.918 61.2842 135.932Z" fill="white"/>
<path d="M59.0939 9.67565C59.709 9.66848 60.3023 9.90408 60.7457 10.3316C61.1891 10.7592 61.4471 11.3444 61.464 11.9609C61.4512 12.5779 61.2051 13.1669 60.7753 13.6087C60.3456 14.0505 59.7644 14.312 59.1495 14.3402C58.533 14.3402 57.9412 14.0967 57.5025 13.6623C57.0638 13.228 56.8135 12.6378 56.8058 12.0197C56.7963 11.7135 56.8486 11.4085 56.9596 11.1231C57.0706 10.8377 57.238 10.5778 57.4517 10.3588C57.6654 10.1399 57.921 9.96655 58.2032 9.84915C58.4854 9.73175 58.7884 9.67273 59.0939 9.67565Z" fill="white"/>
<path d="M138.059 112.372C138.076 112.988 137.848 113.586 137.426 114.035C137.004 114.484 136.421 114.746 135.806 114.765C135.192 114.762 134.603 114.52 134.162 114.091C133.721 113.662 133.463 113.078 133.442 112.463C133.434 112.158 133.487 111.854 133.598 111.57C133.709 111.286 133.875 111.027 134.086 110.809C134.298 110.59 134.551 110.415 134.831 110.296C135.111 110.176 135.411 110.114 135.716 110.113C136.019 110.1 136.322 110.149 136.606 110.257C136.89 110.365 137.15 110.529 137.369 110.74C137.588 110.951 137.762 111.205 137.88 111.485C137.999 111.765 138.06 112.067 138.059 112.372Z" fill="white"/>
</g>
<defs>
<clipPath id="clip0_1390_1358">
<rect width="150" height="147" fill="white"/>
</clipPath>
</defs>
</svg>
