<svg width="150" height="150" viewBox="0 0 150 150" fill="none" xmlns="http://www.w3.org/2000/svg">
<g clip-path="url(#clip0_1390_1389)">
<path d="M0 120.41C0.222656 119.57 0.390625 118.719 0.675781 117.891C2.05859 113.645 5.07812 111 9.0625 109.262C12.2109 107.883 15.5508 107.652 18.9141 107.359C29.0898 106.477 38.4453 102.992 47.3789 98.1992C48.5508 97.5625 49.7227 96.8711 51.1016 96.0937C50.168 95.5156 49.4219 95.0937 48.7187 94.6055C47.4492 93.7266 47.1289 92.3516 47.8672 91.1641C48.6055 89.9766 49.9805 89.6328 51.3203 90.3828C52.5976 91.0859 53.8203 91.9023 55.0976 92.6094C55.4297 92.793 56.0078 92.957 56.2695 92.7969C58.0898 91.6016 59.8555 90.3242 61.7695 88.9805C60.6484 88.3008 59.7148 87.7734 58.8242 87.1875C57.457 86.2891 57.1172 84.9062 57.9062 83.6719C58.6445 82.5 60.0195 82.1797 61.375 82.9297C62.6562 83.6367 63.875 84.4531 65.1641 85.1445C65.5078 85.332 66.1562 85.4336 66.4101 85.2422C67.6797 84.2852 68.8594 83.2148 70.2109 82.0664C68.8398 81.2383 67.6328 80.5312 66.4492 79.7851C64.9844 78.8594 64.5859 77.4414 65.3789 76.1758C66.1719 74.9101 67.5156 74.6601 68.9648 75.4922C70.6523 76.4609 72.3125 77.4805 74.1562 78.5781L77.6406 74.5469C76.6328 73.9297 75.3984 73.1836 74.1719 72.4219C72.4961 71.3867 72.0351 70.0117 72.8945 68.6562C73.7031 67.3867 75.1172 67.1914 76.7422 68.1445C78.3672 69.0976 79.914 70.0312 81.5664 71.0156C82.8906 69.5352 84.1523 68.1172 85.4219 66.7187C88.043 63.793 91.6719 63.2031 95.0781 65.1562C96.6875 66.0742 98.2734 67.0352 99.8515 68.0078C103.406 70.207 104.586 73.8672 102.977 77.7734C101.516 81.2891 100 84.7617 98.3437 88.6523C102.25 89.2031 105.961 89.8867 109.707 90.2148C112.66 90.4687 115.656 90.3281 118.629 90.2383C119.379 90.1843 120.087 89.8724 120.633 89.3555C124.951 85.0707 128.005 79.6796 129.461 73.7734C130.547 69.5937 133.168 67.5469 137.48 67.5234C138.796 67.4879 140.112 67.5506 141.418 67.7109C142.969 67.976 144.392 68.7368 145.474 69.8792C146.555 71.0216 147.238 72.4839 147.418 74.0469C147.49 74.8259 147.522 75.6083 147.512 76.3906C147.512 92.2552 147.512 108.118 147.512 123.98C147.512 125.066 147.684 125.879 148.586 126.641C149.25 127.195 149.566 128.164 150.039 128.949V137.152C149.934 137.461 149.809 137.762 149.73 138.078C148.379 143.645 145.043 147.41 139.613 149.312C138.805 149.594 137.969 149.801 137.148 150.043H23.1445C22.25 149.848 21.3555 149.652 20.4648 149.449C10.5156 147.187 3.71875 141.516 1.06641 131.422C0.601562 129.609 0.351562 127.777 0 125.977V120.41ZM70.5937 88.3789C71.1445 88.7266 71.5898 89.0195 72.0469 89.2969C72.5039 89.5742 73.0586 89.8828 73.5469 90.207C74.9375 91.1172 75.3437 92.4687 74.6211 93.7031C73.8672 95 72.4336 95.3086 70.9297 94.4453C69.4258 93.582 67.914 92.6523 66.3555 91.7109L60.6406 95.918L62.0976 96.8281C62.5976 97.1328 63.1172 97.4062 63.6016 97.7383C64.9648 98.668 65.332 100.02 64.5781 101.254C63.8242 102.488 62.4141 102.777 61 101.98C59.5859 101.184 58.2851 100.437 56.9922 99.5703C56.2109 99.0508 55.6836 99.1797 54.9023 99.5937C50.5625 101.91 46.1797 104.137 41.8086 106.398C41.4922 106.562 41.1797 106.738 40.707 106.996C57.2461 107.301 69.043 114.891 76.6992 129.195C77.25 129.047 77.7695 128.926 78.2812 128.77C93.0351 124.23 107.137 118.066 121.102 111.559C121.637 111.312 122.008 110.703 122.453 110.262C121.91 109.934 121.406 109.426 120.82 109.301C116.281 108.364 111.875 106.868 107.703 104.848C101.727 101.902 96.6172 97.9648 93.25 92.0547C92.8829 91.4829 92.6702 90.8258 92.6325 90.1474C92.5949 89.469 92.7336 88.7924 93.0351 88.1836C94.8398 84.1367 96.5508 80.043 98.2812 75.9609C98.9726 74.3164 98.7383 73.2266 97.418 72.3828C95.7812 71.3281 94.0937 70.3437 92.3984 69.3789C91.3633 68.7891 90.2891 68.832 89.4375 69.707C88.2656 70.9219 87.1641 72.2266 85.9219 73.6133C86.8789 74.1992 87.7109 74.6797 88.5156 75.207C89.918 76.1211 90.3242 77.4531 89.6015 78.6992C88.8789 79.9453 87.4258 80.3047 85.9219 79.4531C84.75 78.7891 83.5781 78.082 82.6914 77.5508L78.6719 81.25C79.5078 81.7578 80.3047 82.207 81.0703 82.7109C82.414 83.5898 82.8164 85.0156 82.0898 86.2266C81.3633 87.4375 79.9492 87.7539 78.5078 87.0078C77.1953 86.3164 75.7734 84.9375 74.6015 85.1211C73.2851 85.3242 72.1875 86.9453 70.9961 87.957C70.8541 88.0913 70.7197 88.2334 70.5937 88.3828V88.3789ZM5.31641 127.152C5.47266 128.039 5.56641 128.754 5.73047 129.453C7.89453 138.723 15.8516 145 25.5039 145.004C61.7773 145.004 98.0482 145.004 134.316 145.004C134.66 145.004 135.004 145.004 135.344 145.004C137.611 144.947 139.788 144.105 141.503 142.622C143.219 141.139 144.366 139.106 144.75 136.871C145.109 134.691 144.992 132.43 145.098 130.113C144.398 130.078 143.926 130.035 143.449 130.035C126.168 130.035 108.887 130.035 91.6055 130.035C90.735 130.066 89.8734 130.221 89.0469 130.496C84.4375 131.914 79.8867 133.539 75.2344 134.793C61.1016 138.578 46.6484 137.379 32.2656 137.34C32.07 137.326 31.8755 137.299 31.6836 137.258C25.3047 136.328 19.3711 134.004 13.5859 131.25C10.8672 129.973 8.20312 128.586 5.31641 127.152ZM71.4844 130.5C71.3437 130.172 71.2773 129.945 71.164 129.746C64.8086 118.785 55.4219 112.664 42.6484 112.187C37.043 111.98 31.4258 112.109 25.8125 112.187C22.6875 112.223 19.5625 112.223 16.4687 112.633C14.1157 112.976 11.8193 113.633 9.64062 114.586C7.35156 115.559 5.91797 117.508 5.27734 119.973C5.07031 120.785 5.19922 121.309 6.05859 121.719C10.8281 124.062 15.4961 126.605 20.3398 128.75C25.0273 130.836 29.8984 132.457 35.1289 132.477C41.72 132.5 48.3099 132.5 54.8984 132.477C60.4835 132.439 66.0468 131.776 71.4844 130.5ZM142.332 124.937C142.398 124.733 142.443 124.522 142.469 124.309C142.469 120.207 142.508 116.105 142.445 112.004C142.36 111.456 142.066 110.961 141.625 110.625C139.715 109.113 137.75 107.66 135.789 106.211C134.748 105.474 133.903 104.493 133.328 103.353C132.753 102.214 132.466 100.951 132.492 99.6758C132.492 99.043 132.492 98.4062 132.492 97.7734C132.453 95.6953 131.672 94.875 129.559 94.8086C128.242 94.7656 126.918 94.7656 125.605 94.8476C119.27 95.2383 112.937 95.6601 106.598 94.9219C104.934 94.7305 103.27 94.5078 101.605 94.3008L101.391 94.7109C103.219 96.0469 104.973 97.5 106.887 98.6953C111.66 101.676 116.957 103.316 122.406 104.555C123.452 104.769 124.439 105.206 125.301 105.836C128.746 108.543 128.094 113.801 123.992 115.719C117.77 118.633 111.453 121.352 105.18 124.152C104.738 124.352 104.305 124.562 103.535 124.934L142.332 124.937ZM127.129 89.6562C128.484 89.7383 129.641 89.7656 130.789 89.8828C132.356 90.0229 133.836 90.665 135.008 91.7137C136.181 92.7624 136.983 94.1616 137.297 95.7031C137.523 96.875 137.379 98.1367 137.492 99.3437C137.562 100.055 137.586 100.977 138.02 101.398C139.312 102.652 140.797 103.703 142.48 105.055V77.2539C142.48 72.7422 142.18 72.4453 137.664 72.4922C135.395 72.5156 134.766 72.9961 134.191 75.2266C133.015 79.7607 131.04 84.049 128.359 87.8906L127.129 89.6562Z" fill="#E3F401"/>
<path d="M82.0313 0C84.5352 0.511719 86.3281 2.07031 88.0938 3.83203C99.112 14.9049 110.154 25.9557 121.219 36.9844C121.499 37.3018 121.845 37.5535 122.233 37.7217C122.621 37.8898 123.042 37.9702 123.465 37.957C124.626 37.9615 125.753 38.3456 126.676 39.0508C128.651 40.7212 130.455 42.5831 132.063 44.6094C136.332 50.1875 136.141 58.1055 131.316 63.2109C124.777 70.125 117.934 76.7461 111.191 83.4688C110.969 83.7156 110.698 83.914 110.395 84.0517C110.093 84.1893 109.765 84.2631 109.433 84.2686C109.1 84.2741 108.77 84.2111 108.463 84.0836C108.156 83.9561 107.879 83.7667 107.648 83.5273C106.59 82.4766 106.641 81.0039 107.863 79.7734C112.754 74.8594 117.654 69.9557 122.563 65.0625C124.047 63.5781 125.551 62.1133 127.012 60.6055C131.059 56.4102 131.043 50.4766 127.012 46.2812C125.902 45.1094 124.836 43.9375 123.688 42.6914L116.211 50.1719C112.411 53.9635 108.613 57.7617 104.816 61.5664C104.465 61.9661 104.072 62.3275 103.645 62.6445C102.574 63.3125 101.488 63.2656 100.559 62.375C99.6289 61.4844 99.5391 60.3984 100.168 59.3086C100.502 58.8251 100.896 58.3855 101.34 58C106.926 52.4023 112.52 46.8125 118.258 41.0742C117.727 40.5352 117.234 40.0273 116.734 39.5117C114.25 37.0234 111.789 34.5117 109.25 32.0898C108.76 31.6831 108.131 31.4816 107.496 31.5273C104.977 31.7969 102.473 32.2109 99.957 32.5469C97.3008 32.9023 95.0938 32.0391 93.1992 30.1484C90.0039 26.957 89.5235 26.9453 86.418 30.2031C82.9531 33.8398 79.6758 37.6641 76.1016 41.1914C73.4805 43.7812 70.5117 46.0234 67.6914 48.7109C69.668 48.4375 71.668 48.2812 73.6172 47.8711C79.2969 46.6797 84.4531 44.1406 89.3086 40.9883C90.8711 39.9648 92.5 39.3555 94.4141 39.793C97.6406 40.5312 99.7774 43.7539 98.7969 46.9062C97.6797 50.4844 96.3164 53.9883 94.9727 57.4883C94.8717 57.8056 94.7043 58.0977 94.4816 58.3453C94.2588 58.5928 93.9859 58.79 93.681 58.9238C93.3761 59.0576 93.0462 59.1249 92.7132 59.1212C92.3802 59.1175 92.0519 59.0429 91.75 58.9023C90.4453 58.3555 89.8711 57.0898 90.3906 55.6289C91.4336 52.6875 92.5703 49.7695 93.586 46.8359C93.7969 46.2305 93.6445 45.5039 93.6563 44.8359C93.0039 45.0234 92.2617 45.0703 91.7031 45.4219C85.7578 49.1992 79.4531 52.0625 72.4492 53.1992C68.2971 53.9085 64.0395 53.6924 59.9805 52.5664C59.3652 52.4282 58.7957 52.1344 58.3265 51.7131C57.8573 51.2918 57.5042 50.7571 57.3008 50.1602C55.7188 46.0703 54.0508 42.0117 52.4102 37.9453C51.5625 35.8008 50.6953 35.375 48.4375 35.9375C46.875 36.3281 45.3125 36.6914 43.75 37.1094C42.1875 37.5273 41.5508 38.3672 41.6211 39.9727C41.6914 41.5781 41.8399 43.0703 41.9649 44.7266C42.9844 44.4766 43.918 44.2266 44.8672 44.0156C46.5313 43.6484 47.8125 44.3633 48.1758 45.8359C48.5156 47.207 47.711 48.4102 46.1211 48.8711C45.4649 49.0625 44.7969 49.1992 44.1328 49.3672C43.4688 49.5352 42.8203 49.7109 42.0781 49.9023V55.2891C43.0742 55.0547 44.0078 54.8242 44.9453 54.6133C46.5078 54.2656 47.7578 54.9453 48.1563 56.3594C48.5547 57.7734 47.7656 58.9922 46.2031 59.4453C45.3692 59.718 44.5149 59.9244 43.6485 60.0625C42.2031 60.2461 41.5156 60.9023 41.6172 62.4375C41.6292 63.6336 41.5744 64.8295 41.4532 66.0195C42.6758 65.7461 43.7969 65.4922 44.8906 65.2383C46.5 64.8945 47.7383 65.5742 48.086 66.9688C48.4336 68.3633 47.7149 69.5781 46.1328 70.0352C44.7266 70.4258 43.3125 70.8164 41.8828 71.1172C41.1016 71.2773 40.75 71.5859 40.6563 72.4297C40.4414 74.3555 40.0938 76.2656 39.7696 78.3945C40.9727 78.1055 41.9883 77.8398 43.0117 77.6133C44.7539 77.2539 46.0117 77.9375 46.3321 79.3789C46.6524 80.8203 45.8828 82.0156 44.1797 82.4766C42.6719 82.8672 41.125 83.1562 39.6524 83.6484C39.3672 83.7642 39.1086 83.9367 38.8924 84.1557C38.6761 84.3746 38.5067 84.6353 38.3946 84.9219C37.1211 88.9609 36.0078 93.0547 34.668 97.0742C34.4895 97.5318 34.2223 97.9496 33.8817 98.3036C33.5412 98.6575 33.134 98.9407 32.6836 99.1367C30.8516 99.8008 29.2735 97.8398 29.8946 95.7969C30.7969 92.8125 31.7578 89.8438 32.6797 86.8672C32.8203 86.4141 32.8946 85.9414 33.0313 85.3047C32.0586 85.5078 31.2266 85.7227 30.3828 85.8555C28.9141 86.0859 27.8047 85.3828 27.4649 84.0703C27.125 82.7578 27.8047 81.5 29.293 81.0547C30.6914 80.6367 32.1328 80.3555 33.5274 79.9219C33.7397 79.851 33.934 79.7346 34.0967 79.5808C34.2593 79.4269 34.3863 79.2394 34.4688 79.0312C34.8828 77.0352 35.1836 75.0156 35.5664 72.7305L32.7617 73.4375C30.8555 73.875 29.5469 73.2266 29.1836 71.6602C28.836 70.1875 29.7032 69.0391 31.5274 68.5703C32.8008 68.2461 34.0977 67.9922 35.3516 67.6016C35.5586 67.5281 35.7467 67.4098 35.9027 67.2551C36.0587 67.1005 36.1786 66.9134 36.2539 66.707C36.4236 65.6479 36.5306 64.5796 36.5742 63.5078C36.6055 63.0273 36.5742 62.5391 36.5742 61.8906C35.1992 62.2227 33.9024 62.5508 32.5977 62.8555C30.8242 63.2695 29.5235 62.5703 29.1797 61.043C28.8594 59.5938 29.6797 58.4609 31.4063 58.0039C32.9141 57.6133 34.4414 57.2734 35.9336 56.832C36.3242 56.7227 36.8555 56.3164 36.8711 56.0195C36.9688 54.457 36.918 52.9141 36.918 51.2031C35.4805 51.5469 34.1836 51.8672 32.8555 52.1758C30.8711 52.6484 29.6328 52.0977 29.2149 50.5664C28.7969 49.0352 29.6407 47.8672 31.7071 47.3242C33.4024 46.8828 35.1016 46.4609 36.9375 45.9922C36.8281 44.1484 36.6953 42.3594 36.6211 40.5664C36.4336 36.0117 38.4688 33.2852 42.8711 32.1641C44.4766 31.7734 46.0821 31.3438 47.6953 30.9531C51.7539 29.9766 55.2305 31.7344 56.8242 35.6016C58.2696 39.1172 59.6641 42.6328 61.1211 46.2734C61.5117 46.0742 61.8594 45.9336 62.1758 45.7383C67.6376 42.3916 72.5464 38.2169 76.7266 33.3633C77.2327 32.743 77.5185 31.9722 77.5391 31.1719C77.5086 25.2909 75.9224 19.5227 72.9414 14.4531C70.4649 10.2188 70.9141 7.19922 74.3164 3.66797C75.9414 1.98438 77.7031 0.628906 79.9805 0.0117188L82.0313 0ZM82.3672 27.0625C83.3281 26.1523 84.0547 25.4297 84.8164 24.7539C85.5573 24.0772 86.4289 23.5593 87.3774 23.2321C88.326 22.905 89.3315 22.7755 90.332 22.8516C92.5586 22.9961 94.2383 24.125 95.8008 25.6484C96.582 26.4063 97.5156 27.4141 98.4531 27.4922C100.219 27.6445 102.035 27.2031 104.16 26.9727L94.1406 16.957C90.6224 13.4414 87.1068 9.92578 83.5938 6.41016C81.707 4.52734 80.5821 4.53906 78.6641 6.44922C78.2149 6.89453 77.7735 7.35156 77.3203 7.79687C76.2656 8.83594 76.1836 9.99609 76.8906 11.2539C77.3203 12.0352 77.7696 12.7734 78.1797 13.5508C80.3519 17.7764 81.769 22.3491 82.3672 27.0625Z" fill="#E3F401"/>
<path d="M110.186 69.7422C107.823 69.6836 106.671 67.6485 107.589 66.0391C107.83 65.673 108.116 65.3383 108.44 65.043C112.745 60.7279 117.054 56.4167 121.366 52.1094C121.503 51.9727 121.636 51.8281 121.784 51.7188C122.933 50.7227 124.35 50.7188 125.327 51.6992C126.304 52.6797 126.284 54.1172 125.292 55.2539C124.843 55.7656 124.335 56.2305 123.854 56.711C119.921 60.625 116.015 64.5703 112.042 68.4649C111.471 68.9564 110.849 69.3847 110.186 69.7422Z" fill="#E3F401"/>
<path d="M125.051 135.023C129.004 135.023 132.957 135.023 136.911 135.023C138.864 135.023 140.036 136.012 140.004 137.551C139.973 139.09 138.797 140.008 136.961 140.012C129.003 140.012 121.047 140.012 113.094 140.012C111.141 140.012 110 139.035 110.028 137.453C110.055 135.93 111.149 135.031 113.043 135.027C117.047 135.016 121.047 135.023 125.051 135.023Z" fill="#E3F401"/>
</g>
<defs>
<clipPath id="clip0_1390_1389">
<rect width="150" height="150" fill="white"/>
</clipPath>
</defs>
</svg>
